# Blender 3.5.1
# www.blender.org
mtllib Bigtop.mtl
o Cylinder
v 2.820912 -0.998944 -3.225250
v 2.726230 3.664101 -3.221287
v 3.486546 -0.998944 -3.159691
v 3.391864 3.664101 -3.155728
v 4.126600 -0.998944 -2.965533
v 4.031918 3.664101 -2.961569
v 4.716477 -0.998944 -2.650237
v 4.621794 3.664101 -2.646274
v 5.233509 -0.998944 -2.225920
v 5.138826 3.664101 -2.221956
v 5.657826 -0.998944 -1.708888
v 5.563143 3.664101 -1.704925
v 5.973122 -0.998944 -1.119011
v 5.846124 3.679163 -1.009630
v 6.167280 -0.998944 -0.478957
v 6.065985 3.659855 -0.314980
v 6.232840 -0.998944 0.186677
v 6.138157 3.664101 0.190640
v 6.167280 -0.998944 0.852311
v 6.072598 3.664101 0.856274
v 5.973122 -0.998944 1.492365
v 5.878439 3.664101 1.496329
v 5.657826 -0.998944 2.082242
v 5.563143 3.664101 2.086206
v 5.233509 -0.998944 2.599274
v 5.138826 3.664101 2.603237
v 4.716477 -0.998944 3.023591
v 4.621794 3.664101 3.027554
v 4.126600 -0.998944 3.338887
v 4.031918 3.664101 3.342850
v 3.486546 -0.998944 3.533045
v 3.391864 3.664101 3.537009
v 2.820912 -0.998944 3.598605
v 2.726230 3.664101 3.602568
v -2.844723 -0.998944 3.533045
v -2.939405 3.664101 3.537009
v -3.484777 -0.998944 3.338887
v -3.579459 3.664101 3.342850
v -4.074654 -0.998944 3.023591
v -4.169336 3.664101 3.027554
v -4.591685 -0.998944 2.599274
v -4.686368 3.664101 2.603237
v -5.016003 -0.998944 2.082242
v -5.110685 3.664101 2.086206
v -5.331298 -0.998944 1.492365
v -5.425981 3.664101 1.496329
v -5.525456 -0.998944 0.852311
v -5.620139 3.664101 0.856274
v -5.591016 -0.998944 0.186677
v -5.685699 3.664101 0.190640
v -5.525456 -0.998944 -0.478957
v -5.620139 3.664101 -0.474994
v -5.331298 -0.998944 -1.119011
v -5.425981 3.664101 -1.115048
v -5.016003 -0.998944 -1.708888
v -5.110685 3.664101 -1.704925
v -4.591685 -0.998944 -2.225920
v -4.686368 3.664101 -2.221956
v -4.074654 -0.998944 -2.650237
v -4.169336 3.664101 -2.646274
v -3.484777 -0.998944 -2.965533
v -3.579459 3.664101 -2.961569
v -2.844723 -0.998944 -3.159691
v -2.939405 3.664101 -3.155728
v 2.886185 3.652260 -3.178634
v 3.448852 3.709780 -3.159109
v 4.013445 3.713264 -2.973923
v 4.853208 3.713975 -2.438989
v 5.164409 3.713975 -2.183593
v 5.419805 3.713975 -1.872392
v 5.968014 3.663702 -0.643689
v 6.084877 3.663702 -0.258440
v 6.124337 3.663702 0.142204
v 6.084877 3.663702 0.542849
v 5.683627 3.693785 2.044335
v 5.511557 3.661708 2.325201
v 5.236407 3.637619 2.627751
v 4.922977 3.664245 2.913571
v 4.485340 3.669373 3.105658
v 4.094836 3.622963 3.434139
v 2.751470 3.674139 3.637768
v -2.911896 3.650806 3.498535
v -3.528483 3.685756 3.313738
v -4.500334 3.673453 2.804757
v -4.833634 3.678490 2.495988
v -5.089030 3.678490 2.184787
v -5.442862 3.653683 1.293179
v -5.617155 3.661233 0.464577
v -5.656615 3.661233 0.063932
v -5.617155 3.661233 -0.336712
v -5.543911 3.661234 -0.704973
v -5.469263 3.644678 -1.024064
v -4.723113 3.722597 -2.271323
v -4.079450 3.660150 -2.687175
v -3.399395 3.654155 -2.994488
v -3.014147 3.654155 -3.111351
v 0.186561 7.761260 0.569259
v 0.117535 1.613097 3.597174
v 2.099471 -0.933704 3.676184
v -2.029805 -0.914665 3.611193
v -0.029805 -0.914665 3.611193
vn 0.0980 0.0028 -0.9952
vn 0.2903 0.0067 -0.9569
vn 0.4714 0.0103 -0.8819
vn 0.6343 0.0135 -0.7729
vn 0.7729 0.0162 -0.6343
vn 0.9061 0.0266 -0.4221
vn 0.9547 0.0320 -0.2957
vn 0.9929 0.0230 -0.1168
vn 0.9950 0.0201 0.0980
vn 0.9568 0.0192 0.2902
vn 0.8818 0.0175 0.4713
vn 0.7729 0.0152 0.6343
vn 0.6343 0.0122 0.7730
vn 0.4714 0.0088 0.8819
vn 0.2903 0.0051 0.9569
vn 0.0980 0.0011 0.9952
vn -0.0116 -0.0011 0.9999
vn -0.2903 -0.0067 0.9569
vn -0.4714 -0.0103 0.8819
vn -0.6343 -0.0135 0.7729
vn -0.7729 -0.0162 0.6343
vn -0.8818 -0.0183 0.4713
vn -0.9568 -0.0197 0.2902
vn -0.9950 -0.0203 0.0980
vn -0.9950 -0.0201 -0.0980
vn -0.9568 -0.0192 -0.2902
vn -0.8818 -0.0175 -0.4713
vn -0.7729 -0.0152 -0.6343
vn -0.6343 -0.0122 -0.7730
vn -0.4714 -0.0088 -0.8819
vn -0.0001 1.0000 -0.0000
vn -0.2903 -0.0051 -0.9569
vn -0.0116 0.0006 -0.9999
vn -0.0000 -1.0000 -0.0000
vn -0.0412 0.6584 -0.7515
vn 0.2032 0.7466 -0.6335
vn 0.3358 0.7799 -0.5282
vn 0.3857 0.7940 -0.4699
vn 0.4531 0.8102 -0.3719
vn 0.5367 0.8182 -0.2060
vn 0.5468 0.8206 -0.1659
vn 0.5644 0.8236 -0.0556
vn 0.5698 0.8199 0.0561
vn 0.5657 0.8135 0.1349
vn 0.4803 0.7884 0.3843
vn 0.4404 0.7699 0.4618
vn 0.4589 0.7770 0.4308
vn 0.2915 0.7062 0.6452
vn 0.3783 0.7412 0.5545
vn 0.1382 0.6486 0.7485
vn -0.0223 0.5913 0.8062
vn -0.1818 0.6579 0.7309
vn -0.3311 0.7158 0.6148
vn -0.4344 0.7613 0.4813
vn -0.4829 0.7808 0.3963
vn -0.5606 0.8036 0.2001
vn -0.5738 0.8089 0.1281
vn -0.5767 0.8149 0.0568
vn -0.5702 0.8196 -0.0562
vn -0.5617 0.8198 -0.1117
vn -0.5480 0.8189 -0.1707
vn -0.5193 0.8141 -0.2598
vn -0.2964 0.7637 -0.5735
vn -0.2652 0.7535 -0.6016
vn 0.0009 -1.0000 -0.0013
vn -0.1968 0.7349 -0.6489
vn -0.0082 0.6709 -0.7415
vn 0.0157 -0.0065 -0.9999
vt 1.000000 0.500000
vt 0.000000 0.500000
vt 0.750000 0.490000
vt 1.000000 1.000000
vt 0.250000 0.490000
vt 0.000000 1.000000
vt 0.968750 0.500000
vt 0.796822 0.485388
vt 0.968750 1.000000
vt 0.296822 0.485388
vt 0.937500 0.500000
vt 0.841844 0.471731
vt 0.937500 1.000000
vt 0.341844 0.471731
vt 0.906250 0.500000
vt 0.883337 0.449553
vt 0.906250 1.000000
vt 0.383337 0.449553
vt 0.875000 0.500000
vt 0.919706 0.419706
vt 0.875000 1.000000
vt 0.419706 0.419706
vt 0.843750 0.500000
vt 0.949553 0.383337
vt 0.843750 1.000000
vt 0.449553 0.383337
vt 0.812500 0.500000
vt 0.971731 0.341844
vt 0.812500 1.000000
vt 0.471731 0.341844
vt 0.781250 0.500000
vt 0.985388 0.296822
vt 0.781250 1.000000
vt 0.485388 0.296822
vt 0.750000 0.500000
vt 0.990000 0.250000
vt 0.750000 1.000000
vt 0.490000 0.250000
vt 0.718750 0.500000
vt 0.985388 0.203178
vt 0.718750 1.000000
vt 0.485388 0.203178
vt 0.687500 0.500000
vt 0.971731 0.158156
vt 0.687500 1.000000
vt 0.471731 0.158156
vt 0.656250 0.500000
vt 0.949553 0.116663
vt 0.656250 1.000000
vt 0.449553 0.116663
vt 0.625000 0.500000
vt 0.919706 0.080294
vt 0.625000 1.000000
vt 0.419706 0.080294
vt 0.593750 0.500000
vt 0.883337 0.050447
vt 0.593750 1.000000
vt 0.383337 0.050447
vt 0.562500 0.500000
vt 0.841844 0.028269
vt 0.562500 1.000000
vt 0.341844 0.028269
vt 0.531250 0.500000
vt 0.796822 0.014612
vt 0.531250 1.000000
vt 0.296822 0.014612
vt 0.500000 0.500000
vt 0.750000 0.010000
vt 0.500000 1.000000
vt 0.250000 0.010000
vt 0.468750 0.500000
vt 0.703178 0.014612
vt 0.468750 1.000000
vt 0.203178 0.014612
vt 0.437500 0.500000
vt 0.658156 0.028269
vt 0.437500 1.000000
vt 0.158156 0.028269
vt 0.406250 0.500000
vt 0.616663 0.050447
vt 0.406250 1.000000
vt 0.116663 0.050447
vt 0.375000 0.500000
vt 0.580294 0.080294
vt 0.375000 1.000000
vt 0.080294 0.080294
vt 0.343750 0.500000
vt 0.550447 0.116663
vt 0.343750 1.000000
vt 0.050447 0.116663
vt 0.312500 0.500000
vt 0.528269 0.158156
vt 0.312500 1.000000
vt 0.028269 0.158156
vt 0.281250 0.500000
vt 0.514612 0.203178
vt 0.281250 1.000000
vt 0.014612 0.203178
vt 0.250000 0.500000
vt 0.510000 0.250000
vt 0.250000 1.000000
vt 0.010000 0.250000
vt 0.218750 0.500000
vt 0.514612 0.296822
vt 0.218750 1.000000
vt 0.014612 0.296822
vt 0.187500 0.500000
vt 0.528269 0.341844
vt 0.187500 1.000000
vt 0.028269 0.341844
vt 0.156250 0.500000
vt 0.550447 0.383337
vt 0.156250 1.000000
vt 0.050447 0.383337
vt 0.125000 0.500000
vt 0.580294 0.419706
vt 0.125000 1.000000
vt 0.080294 0.419706
vt 0.093750 0.500000
vt 0.616663 0.449553
vt 0.093750 1.000000
vt 0.116663 0.449553
vt 0.062500 0.500000
vt 0.658156 0.471731
vt 0.158156 0.471731
vt 0.062500 1.000000
vt 0.031250 0.500000
vt 0.703178 0.485388
vt 0.203178 0.485388
vt 0.031250 1.000000
vt 0.750000 0.490000
vt 0.250000 0.490000
vt 0.296822 0.485388
vt 0.796822 0.485388
vt 0.341844 0.471731
vt 0.841844 0.471731
vt 0.383337 0.449553
vt 0.883337 0.449553
vt 0.419706 0.419706
vt 0.919706 0.419706
vt 0.449553 0.383337
vt 0.949553 0.383337
vt 0.471731 0.341844
vt 0.971731 0.341844
vt 0.485388 0.296822
vt 0.985388 0.296822
vt 0.490000 0.250000
vt 0.990000 0.250000
vt 0.485388 0.203178
vt 0.985388 0.203178
vt 0.471731 0.158156
vt 0.971731 0.158156
vt 0.449553 0.116663
vt 0.949553 0.116663
vt 0.419706 0.080294
vt 0.919706 0.080294
vt 0.383337 0.050447
vt 0.883337 0.050447
vt 0.341844 0.028269
vt 0.841844 0.028269
vt 0.296822 0.014612
vt 0.796822 0.014612
vt 0.250000 0.010000
vt 0.750000 0.010000
vt 0.203178 0.014612
vt 0.703178 0.014612
vt 0.158156 0.028269
vt 0.658156 0.028269
vt 0.116663 0.050447
vt 0.616663 0.050447
vt 0.080294 0.080294
vt 0.580294 0.080294
vt 0.050447 0.116663
vt 0.550447 0.116663
vt 0.028269 0.158156
vt 0.528269 0.158156
vt 0.014612 0.203178
vt 0.514612 0.203178
vt 0.010000 0.250000
vt 0.510000 0.250000
vt 0.014612 0.296822
vt 0.514612 0.296822
vt 0.028269 0.341844
vt 0.528269 0.341844
vt 0.050447 0.383337
vt 0.550447 0.383337
vt 0.080294 0.419706
vt 0.580294 0.419706
vt 0.116663 0.449553
vt 0.616663 0.449553
vt 0.658156 0.471731
vt 0.158156 0.471731
vt 0.703178 0.485388
vt 0.203178 0.485388
vt 0.250000 0.250000
vt 0.000000 0.000000
vt 1.000000 0.000000
vt 0.000000 1.000000
vt 1.000000 1.000000
s 0
f 1/1/1 2/4/1 4/9/1 3/7/1
f 3/7/2 4/9/2 6/13/2 5/11/2
f 5/11/3 6/13/3 8/17/3 7/15/3
f 7/15/4 8/17/4 10/21/4 9/19/4
f 9/19/5 10/21/5 12/25/5 11/23/5
f 11/23/6 12/25/6 14/29/6 13/27/6
f 13/27/7 14/29/7 16/33/7 15/31/7
f 15/31/8 16/33/8 18/37/8 17/35/8
f 17/35/9 18/37/9 20/41/9 19/39/9
f 19/39/10 20/41/10 22/45/10 21/43/10
f 21/43/11 22/45/11 24/49/11 23/47/11
f 23/47/12 24/49/12 26/53/12 25/51/12
f 25/51/13 26/53/13 28/57/13 27/55/13
f 27/55/14 28/57/14 30/61/14 29/59/14
f 29/59/15 30/61/15 32/65/15 31/63/15
f 31/63/16 32/65/16 34/69/16 33/67/16
f 33/67/17 34/69/17 36/73/17 35/71/17
f 35/71/18 36/73/18 38/77/18 37/75/18
f 37/75/19 38/77/19 40/81/19 39/79/19
f 39/79/20 40/81/20 42/85/20 41/83/20
f 41/83/21 42/85/21 44/89/21 43/87/21
f 43/87/22 44/89/22 46/93/22 45/91/22
f 45/91/23 46/93/23 48/97/23 47/95/23
f 47/95/24 48/97/24 50/101/24 49/99/24
f 49/99/25 50/101/25 52/105/25 51/103/25
f 51/103/26 52/105/26 54/109/26 53/107/26
f 53/107/27 54/109/27 56/113/27 55/111/27
f 55/111/28 56/113/28 58/117/28 57/115/28
f 57/115/29 58/117/29 60/121/29 59/119/29
f 59/119/30 60/121/30 62/126/30 61/123/30
f 4/10/31 2/5/31 64/129/31 62/125/31 60/122/31 58/118/31 56/114/31 54/110/31 52/106/31 50/102/31 48/98/31 46/94/31 44/90/31 42/86/31 40/82/31 38/78/31 36/74/31 34/70/31 32/66/31 30/62/31 28/58/31 26/54/31 24/50/31 22/46/31 20/42/31 18/38/31 16/34/31 14/30/31 12/26/31 10/22/31 8/18/31 6/14/31
f 61/123/32 62/126/32 64/130/32 63/127/32
f 63/127/33 64/130/33 2/6/33 1/2/33
f 1/3/34 3/8/34 5/12/34 7/16/34 9/20/34 11/24/34 13/28/34 15/32/34 17/36/34 19/40/34 21/44/34 23/48/34 25/52/34 27/56/34 29/60/34 31/64/34 33/68/34 35/72/34 37/76/34 39/80/34 41/84/34 43/88/34 45/92/34 47/96/34 49/100/34 51/104/34 53/108/34 55/112/34 57/116/34 59/120/34 61/124/34 63/128/34
f 65/132/35 97/195/35 66/133/35
f 66/133/36 97/195/36 67/135/36
f 67/135/37 97/195/37 68/137/37
f 68/137/38 97/195/38 69/139/38
f 69/139/39 97/195/39 70/141/39
f 70/141/40 97/195/40 71/143/40
f 71/143/41 97/195/41 72/145/41
f 72/145/42 97/195/42 73/147/42
f 73/147/43 97/195/43 74/149/43
f 74/149/44 97/195/44 75/151/44
f 75/151/45 97/195/45 76/153/45
f 76/153/46 97/195/46 77/155/46
f 77/155/47 97/195/47 78/157/47
f 78/157/48 97/195/48 79/159/48
f 79/159/49 97/195/49 80/161/49
f 80/161/50 97/195/50 81/163/50
f 81/163/51 97/195/51 82/165/51
f 82/165/52 97/195/52 83/167/52
f 83/167/53 97/195/53 84/169/53
f 84/169/54 97/195/54 85/171/54
f 85/171/55 97/195/55 86/173/55
f 86/173/56 97/195/56 87/175/56
f 87/175/57 97/195/57 88/177/57
f 88/177/58 97/195/58 89/179/58
f 89/179/59 97/195/59 90/181/59
f 90/181/60 97/195/60 91/183/60
f 91/183/61 97/195/61 92/185/61
f 92/185/62 97/195/62 93/187/62
f 93/187/63 97/195/63 94/189/63
f 94/189/64 97/195/64 95/192/64
f 65/131/65 66/134/65 67/136/65 68/138/65 69/140/65 70/142/65 71/144/65 72/146/65 73/148/65 74/150/65 75/152/65 76/154/65 77/156/65 78/158/65 79/160/65 80/162/65 81/164/65 82/166/65 83/168/65 84/170/65 85/172/65 86/174/65 87/176/65 88/178/65 89/180/65 90/182/65 91/184/65 92/186/65 93/188/65 94/190/65 95/191/65 96/193/65
f 95/192/66 97/195/66 96/194/66
f 96/194/67 97/195/67 65/132/67
f 98/196/68 99/197/68 101/199/68 100/198/68
